<svg width="398" height="403" xmlns="http://www.w3.org/2000/svg" xmlns:xlink="http://www.w3.org/1999/xlink" xml:space="preserve" overflow="hidden"><g transform="translate(-3410 -568)"><g><path d="M3410 770C3410 660.648 3498.65 572 3608 572 3717.35 572 3806 660.648 3806 770 3806 879.352 3717.35 968 3608 968 3498.65 968 3410 879.352 3410 770Z" fill="#FFFFFF" fill-rule="evenodd" fill-opacity="1"/><g><g><g><path d="M3477.38 677.188 3477.38 862.812 3738.62 862.812 3738.62 677.188ZM3615.29 795.658C3611.26 799.669 3604.74 799.669 3600.71 795.658L3489.17 684.121C3489.16 684.108 3489.16 684.086 3489.17 684.072 3489.18 684.066 3489.18 684.062 3489.19 684.062L3726.81 684.062C3726.83 684.063 3726.84 684.078 3726.84 684.097 3726.84 684.106 3726.84 684.115 3726.83 684.121ZM3565.33 770 3484.31 851.018C3484.29 851.032 3484.27 851.031 3484.26 851.018 3484.25 851.012 3484.25 851.003 3484.25 850.994L3484.25 689.006C3484.25 688.987 3484.27 688.972 3484.28 688.972 3484.29 688.972 3484.3 688.975 3484.31 688.982ZM3570.19 774.861 3595.84 800.518C3602.56 807.231 3613.44 807.233 3620.15 800.521 3620.15 800.52 3620.15 800.519 3620.16 800.518L3645.81 774.861 3726.83 855.879C3726.84 855.892 3726.84 855.914 3726.83 855.928 3726.82 855.934 3726.82 855.938 3726.81 855.938L3489.19 855.938C3489.17 855.937 3489.16 855.922 3489.16 855.903 3489.16 855.894 3489.16 855.885 3489.17 855.879ZM3650.67 770 3731.69 688.982C3731.71 688.968 3731.73 688.969 3731.74 688.982 3731.75 688.988 3731.75 688.997 3731.75 689.006L3731.75 850.994C3731.75 851.013 3731.73 851.028 3731.72 851.028 3731.71 851.028 3731.7 851.025 3731.69 851.018Z" stroke="#000000" stroke-width="21.7708" stroke-linecap="butt" stroke-linejoin="miter" stroke-miterlimit="4" stroke-opacity="1" fill="#000000" fill-rule="nonzero" fill-opacity="1"/></g></g></g></g></g></svg>